<svg width="164" height="164" viewBox="0 0 164 164" fill="none" xmlns="http://www.w3.org/2000/svg">
<path d="M15.8876 147.28C15.8876 147.28 20.5693 165.286 49.8612 160.682L54.8427 148.625L46.4172 139.469L23.0856 131.774L15.8799 147.282" fill="#67477C"/>
<path d="M109.239 113.519C109.239 119.899 105.947 121.57 97.6723 125.076L26.9344 154.936C25.4159 154.937 23.9122 154.638 22.5093 154.057C21.1063 153.476 19.8316 152.624 18.7581 151.55C17.6846 150.476 16.8332 149.201 16.2528 147.797C15.6723 146.394 15.374 144.89 15.375 143.372V43.993C15.375 37.597 19.1265 35.4778 26.9344 32.4233L97.6723 2.5625C100.738 2.56182 103.678 3.7786 105.847 5.94531C108.015 8.11201 109.235 11.0513 109.237 14.1168V113.516" fill="#B588D3"/>
<path d="M21.8068 153.717C21.8068 153.717 48.3184 161.327 49.861 160.671C51.4113 160.013 48.8744 149.173 48.8744 149.173L39.2856 138.844L30.3604 138.434L28.7896 140.663L21.8042 153.717" fill="#67477C"/>
<path d="M96.0118 9.43768L17.543 42.4119L21.2202 63.5346L32.8923 64.7031L71.8782 58.425L96.1169 45.7227L113.96 21.2892C110.059 14.2962 104.337 9.96812 96.0144 9.43768" fill="#F4F5F5"/>
<path d="M38.3299 49.7176C38.3299 47.8726 38.6476 46.3863 39.2857 45.1307C31.2625 44.3876 23.6801 42.0583 18.1374 37.0717C16.3078 38.7578 15.4058 40.859 15.4058 43.9904V143.374C15.4044 144.893 15.7023 146.396 16.2823 147.799C16.8624 149.202 17.7133 150.477 18.7863 151.551C19.8594 152.625 21.1336 153.477 22.5361 154.058C23.9386 154.64 25.4419 154.939 26.9601 154.939L38.3786 150.119C38.3464 149.783 38.3293 149.446 38.3273 149.109V49.7176H38.3299Z" fill="#67477C"/>
<path d="M134.203 123.313C134.203 129.706 130.926 131.372 122.641 134.877L49.8714 160.679C46.8045 160.678 43.8634 159.46 41.6948 157.291C39.5262 155.122 38.3076 152.181 38.3069 149.114V49.7253C38.3069 43.3395 42.0635 41.2126 49.8714 38.1658L122.641 12.3615C125.708 12.3621 128.649 13.5808 130.817 15.7495C132.985 17.9182 134.203 20.8593 134.203 23.926V123.313Z" fill="#B588D3"/>
<path d="M123.042 125.199C122.309 125.199 121.576 124.919 121.016 124.361L49.5206 52.863C48.403 51.7453 48.403 49.93 49.5206 48.8123C50.6383 47.6946 52.4536 47.6946 53.5713 48.8123L125.067 120.308C126.185 121.426 126.185 123.241 125.067 124.359C124.507 124.916 123.774 125.199 123.042 125.199V125.199Z" fill="#D99E82"/>
<path d="M79.5926 63.1297C79.5926 71.8307 72.5389 78.8843 63.8379 78.8843C55.1369 78.8843 48.0833 71.8307 48.0833 63.1297C48.0833 54.4287 55.1369 47.375 63.8379 47.375C72.5389 47.375 79.5926 54.4287 79.5926 63.1297V63.1297Z" fill="#FCB1E3"/>
<path d="M96.3625 83.9422C98.3621 75.474 93.1183 66.9882 84.6501 64.9886C76.182 62.989 67.6961 68.2328 65.6965 76.701C63.6969 85.1692 68.9407 93.655 77.4089 95.6546C85.8771 97.6542 94.3629 92.4104 96.3625 83.9422Z" fill="#FFD983"/>
<path d="M113.97 97.5043C113.97 106.205 106.914 113.261 98.2127 113.261C89.5117 113.261 82.458 106.205 82.458 97.5043C82.458 88.8033 89.5117 81.7496 98.2127 81.7496C106.914 81.7496 113.97 88.8056 113.97 97.5043Z" fill="#A6D388"/>
<path d="M123.042 125.199C122.309 125.199 121.576 124.919 121.016 124.361L103.47 106.814C102.35 105.697 102.35 103.881 103.47 102.764C104.59 101.646 106.4 101.646 107.52 102.764L125.067 120.31C126.185 121.428 126.185 123.243 125.067 124.361C124.507 124.916 123.774 125.199 123.042 125.199V125.199Z" fill="#D99E82"/>
</svg>
