<svg width="194" height="56" viewBox="0 0 194 56" fill="none" xmlns="http://www.w3.org/2000/svg">
<path d="M82.628 43C82.508 43 82.4 42.964 82.304 42.892C82.232 42.796 82.196 42.688 82.196 42.568V18.232C82.196 18.112 82.232 18.016 82.304 17.944C82.4 17.848 82.508 17.8 82.628 17.8H91.628C93.428 17.8 95 18.124 96.344 18.772C97.712 19.396 98.768 20.284 99.512 21.436C100.256 22.588 100.628 23.92 100.628 25.432V35.368C100.628 36.88 100.256 38.212 99.512 39.364C98.768 40.516 97.712 41.416 96.344 42.064C95 42.688 93.428 43 91.628 43H82.628ZM87.272 38.464C87.272 38.584 87.332 38.644 87.452 38.644H91.808C92.912 38.644 93.8 38.272 94.472 37.528C95.168 36.784 95.528 35.788 95.552 34.54V26.26C95.552 25.012 95.204 24.016 94.508 23.272C93.836 22.528 92.924 22.156 91.772 22.156H87.452C87.332 22.156 87.272 22.216 87.272 22.336V38.464ZM119.099 43C118.859 43 118.703 42.88 118.631 42.64L117.551 39.112C117.503 39.016 117.443 38.968 117.371 38.968H108.515C108.443 38.968 108.383 39.016 108.335 39.112L107.291 42.64C107.219 42.88 107.063 43 106.823 43H102.251C102.107 43 101.999 42.964 101.927 42.892C101.855 42.796 101.843 42.664 101.891 42.496L109.667 18.16C109.739 17.92 109.895 17.8 110.135 17.8H115.787C116.027 17.8 116.183 17.92 116.255 18.16L124.031 42.496C124.055 42.544 124.067 42.604 124.067 42.676C124.067 42.892 123.935 43 123.671 43H119.099ZM109.631 34.828C109.607 34.972 109.655 35.044 109.775 35.044H116.111C116.255 35.044 116.303 34.972 116.255 34.828L113.015 24.136C112.991 24.04 112.955 24.004 112.907 24.028C112.859 24.028 112.823 24.064 112.799 24.136L109.631 34.828ZM141.703 18.232C141.703 18.112 141.739 18.016 141.811 17.944C141.907 17.848 142.015 17.8 142.135 17.8H146.347C146.467 17.8 146.563 17.848 146.635 17.944C146.731 18.016 146.779 18.112 146.779 18.232V42.568C146.779 42.688 146.731 42.796 146.635 42.892C146.563 42.964 146.467 43 146.347 43H142.279C142.039 43 141.871 42.904 141.775 42.712L132.451 27.304C132.403 27.232 132.355 27.208 132.307 27.232C132.259 27.232 132.235 27.28 132.235 27.376L132.307 42.568C132.307 42.688 132.259 42.796 132.163 42.892C132.091 42.964 131.995 43 131.875 43H127.663C127.543 43 127.435 42.964 127.339 42.892C127.267 42.796 127.231 42.688 127.231 42.568V18.232C127.231 18.112 127.267 18.016 127.339 17.944C127.435 17.848 127.543 17.8 127.663 17.8H131.731C131.971 17.8 132.139 17.896 132.235 18.088L141.523 33.424C141.571 33.496 141.619 33.532 141.667 33.532C141.715 33.508 141.739 33.448 141.739 33.352L141.703 18.232ZM160.029 43.288C158.181 43.288 156.549 42.916 155.133 42.172C153.717 41.428 152.613 40.396 151.821 39.076C151.053 37.732 150.669 36.184 150.669 34.432V26.368C150.669 24.616 151.053 23.068 151.821 21.724C152.613 20.38 153.717 19.348 155.133 18.628C156.549 17.884 158.181 17.512 160.029 17.512C161.853 17.512 163.461 17.872 164.853 18.592C166.269 19.312 167.361 20.296 168.129 21.544C168.921 22.768 169.317 24.136 169.317 25.648V25.9C169.317 26.02 169.269 26.128 169.173 26.224C169.101 26.296 169.005 26.332 168.885 26.332H164.673C164.553 26.332 164.445 26.296 164.349 26.224C164.277 26.128 164.241 26.02 164.241 25.9V25.792C164.241 24.688 163.857 23.764 163.089 23.02C162.321 22.252 161.301 21.868 160.029 21.868C158.733 21.868 157.689 22.276 156.897 23.092C156.129 23.884 155.745 24.928 155.745 26.224V34.576C155.745 35.872 156.165 36.928 157.005 37.744C157.845 38.536 158.913 38.932 160.209 38.932C161.457 38.932 162.453 38.608 163.197 37.96C163.941 37.288 164.313 36.364 164.313 35.188V33.568C164.313 33.448 164.253 33.388 164.133 33.388H160.101C159.981 33.388 159.873 33.352 159.777 33.28C159.705 33.184 159.669 33.076 159.669 32.956V29.644C159.669 29.524 159.705 29.428 159.777 29.356C159.873 29.26 159.981 29.212 160.101 29.212H168.885C169.005 29.212 169.101 29.26 169.173 29.356C169.269 29.428 169.317 29.524 169.317 29.644V34.396C169.317 36.22 168.933 37.804 168.165 39.148C167.397 40.492 166.305 41.524 164.889 42.244C163.497 42.94 161.877 43.288 160.029 43.288ZM182.18 43.396C180.308 43.396 178.652 43.012 177.212 42.244C175.796 41.476 174.692 40.408 173.9 39.04C173.108 37.648 172.712 36.052 172.712 34.252V26.548C172.712 24.772 173.108 23.2 173.9 21.832C174.692 20.464 175.796 19.408 177.212 18.664C178.652 17.896 180.308 17.512 182.18 17.512C184.076 17.512 185.732 17.896 187.148 18.664C188.588 19.408 189.704 20.464 190.496 21.832C191.288 23.2 191.684 24.772 191.684 26.548V34.252C191.684 36.052 191.288 37.648 190.496 39.04C189.704 40.432 188.588 41.512 187.148 42.28C185.732 43.024 184.076 43.396 182.18 43.396ZM182.18 39.04C183.5 39.04 184.568 38.62 185.384 37.78C186.2 36.94 186.608 35.824 186.608 34.432V26.512C186.608 25.12 186.2 24.004 185.384 23.164C184.592 22.3 183.524 21.868 182.18 21.868C180.86 21.868 179.792 22.3 178.976 23.164C178.184 24.004 177.788 25.12 177.788 26.512V34.432C177.788 35.824 178.184 36.94 178.976 37.78C179.792 38.62 180.86 39.04 182.18 39.04Z" fill="white"/>
<path d="M17.425 50.2907C17.425 50.2907 19.0236 56.4393 29.0257 54.8669L30.7267 50.75L27.8497 47.6237L19.8829 44.996L17.4224 50.2915" fill="#67477C"/>
<path d="M49.3013 38.7625C49.3013 40.9413 48.1769 41.5118 45.3515 42.7088L21.1971 52.9051C20.6786 52.9052 20.1651 52.8032 19.6861 52.6047C19.207 52.4063 18.7718 52.1154 18.4052 51.7487C18.0386 51.3819 17.7479 50.9466 17.5497 50.4674C17.3515 49.9883 17.2497 49.4748 17.25 48.9563V15.022C17.25 12.838 18.531 12.1144 21.1971 11.0714L45.3515 0.875C46.3983 0.874768 47.4023 1.29025 48.1428 2.03011C48.8833 2.76996 49.2997 3.7736 49.3004 4.82038V38.7616" fill="#B588D3"/>
<path d="M19.4462 52.4886C19.4462 52.4886 28.499 55.0874 29.0257 54.8634C29.5551 54.6385 28.6889 50.9373 28.6889 50.9373L25.4146 47.4101L22.367 47.2701L21.8306 48.0314L19.4454 52.4886" fill="#67477C"/>
<path d="M44.7845 3.2226L17.9902 14.4821L19.2459 21.6947L23.2315 22.0937L36.5437 19.95L44.8204 15.6126L50.913 7.26947C49.5812 4.88159 47.6274 3.40372 44.7854 3.2226" fill="#F4F5F5"/>
<path d="M25.0882 16.9768C25.0882 16.3468 25.1967 15.8393 25.4146 15.4105C22.675 15.1568 20.0859 14.3614 18.1932 12.6586C17.5685 13.2344 17.2605 13.9519 17.2605 15.0211V48.9571C17.26 49.4755 17.3618 49.989 17.5598 50.468C17.7579 50.9471 18.0484 51.3825 18.4148 51.7492C18.7812 52.1159 19.2163 52.4069 19.6952 52.6054C20.1741 52.8038 20.6875 52.906 21.2059 52.906L25.1049 51.2601C25.0939 51.1455 25.088 51.0305 25.0874 50.9154V16.9768H25.0882Z" fill="#67477C"/>
<path d="M57.8255 42.1068C57.8255 44.2899 56.7064 44.8586 53.8775 46.0556L29.0293 54.866C27.982 54.8658 26.9777 54.4497 26.2372 53.7092C25.4967 52.9687 25.0806 51.9644 25.0804 50.9171V16.9794C25.0804 14.7989 26.3631 14.0726 29.0293 13.0323L53.8775 4.22101C54.9247 4.22124 55.9288 4.63738 56.6692 5.37792C57.4096 6.11845 57.8255 7.12273 57.8255 8.16988V42.1068Z" fill="#B588D3"/>
<path d="M54.0143 42.7508C53.7641 42.7508 53.5139 42.6552 53.3227 42.4647L28.9095 18.0508C28.5279 17.6692 28.5279 17.0493 28.9095 16.6676C29.2912 16.286 29.911 16.286 30.2927 16.6676L54.7058 41.0808C55.0875 41.4624 55.0875 42.0823 54.7058 42.4639C54.5146 42.6544 54.2644 42.7508 54.0143 42.7508V42.7508Z" fill="#D99E82"/>
<path d="M39.178 21.5565C39.178 24.5275 36.7694 26.9361 33.7983 26.9361C30.8273 26.9361 28.4187 24.5275 28.4187 21.5565C28.4187 18.5854 30.8273 16.1768 33.7983 16.1768C36.7694 16.1768 39.178 18.5854 39.178 21.5565V21.5565Z" fill="#FCB1E3"/>
<path d="M44.9043 28.6632C45.5871 25.7716 43.7965 22.874 40.9049 22.1912C38.0134 21.5084 35.1158 23.299 34.433 26.1906C33.7502 29.0821 35.5407 31.9797 38.4323 32.6625C41.3239 33.3453 44.2215 31.5547 44.9043 28.6632Z" fill="#FFD983"/>
<path d="M50.9165 33.2941C50.9165 36.2652 48.5071 38.6746 45.5361 38.6746C42.565 38.6746 40.1564 36.2652 40.1564 33.2941C40.1564 30.3231 42.565 27.9145 45.5361 27.9145C48.5071 27.9145 50.9165 30.3239 50.9165 33.2941Z" fill="#A6D388"/>
<path d="M54.0143 42.7507C53.7641 42.7507 53.5139 42.6551 53.3227 42.4647L47.3311 36.4732C46.9487 36.0915 46.9487 35.4716 47.3311 35.09C47.7136 34.7084 48.3319 34.7084 48.7143 35.09L54.7058 41.0815C55.0875 41.4632 55.0875 42.0831 54.7058 42.4647C54.5146 42.6543 54.2644 42.7507 54.0143 42.7507V42.7507Z" fill="#D99E82"/>
</svg>
